# File created by Blade
# Date/Time:  Wed Sep 24 19:10:19 2014
# Frame Rate: 120.000 fps
#------------------------------------------------------
:FULLY-SPECIFIED
:DEGREES
1401
root -6.781092 33.659228 -3.611209 -2.504467 -10.445270 20.526124
Spine -1.444095 15.066107 -17.481679
Head 4.887943 -3.355513 2.321013
LeftShoulder -7.843960 15.836485 15.736416
LeftArm 16.215754 -30.984942 -66.076115
LeftForeArm 6.973088 -0.000000 64.800093
LeftHand -37.612314 -0.000000 53.681946
LeftHandThumb1 -26.253704 0.000000 33.147579
RightShoulder -15.420880 10.132431 -18.187901
RightArm -15.620136 -28.069842 91.307828
RightForeArm -20.661547 -0.000000 24.611807
RightHand -4.932327 0.000000 10.116674
RightHandThumb1 -24.326973 -0.000000 -32.862282
LeftUpLeg -82.850247 -1.117000 16.423259
LeftLeg 105.284732 -0.000000 -0.000000
LeftFoot 44.056571 -4.926871 -11.694670
LeftToeBase 1.766405 -0.000000 -0.000000
RightUpLeg -9.365170 -0.043439 -16.413990
RightLeg 21.703210 -0.000000 -0.000000
RightFoot -13.576037 -6.732415 -9.907530
RightToeBase -3.754032 -0.000000 0.000000
1402
root -6.796725 33.649342 -3.636465 -2.407639 -10.186965 20.399495
Spine -1.366230 14.955362 -17.284985
Head 4.839717 -3.385011 2.285239
LeftShoulder -7.862438 15.869123 15.708790
LeftArm 16.351477 -30.950109 -66.208656
LeftForeArm 7.028946 -0.000000 64.840576
LeftHand -37.707017 0.000000 53.804556
LeftHandThumb1 -26.253704 0.000000 33.147579
RightShoulder -15.497313 10.082249 -18.192867
RightArm -15.549804 -28.095566 91.263349
RightForeArm -20.692579 -0.000000 24.606310
RightHand -4.971108 0.000000 9.934131
RightHandThumb1 -24.326973 -0.000000 -32.862282
LeftUpLeg -82.875846 -0.709294 15.141763
LeftLeg 105.108751 -0.000000 -0.000000
LeftFoot 43.889032 -4.428482 -11.913846
LeftToeBase 1.728300 -0.000000 -0.000000
RightUpLeg -9.377979 -0.200148 -16.265576
RightLeg 21.713081 -0.000000 -0.000000
RightFoot -13.553532 -6.871907 -10.046533
RightToeBase -3.788861 -0.000000 0.000000
1403
root -6.815737 33.638167 -3.664906 -2.292005 -9.898534 20.247036
Spine -1.284385 14.814286 -17.064833
Head 4.771295 -3.410540 2.252435
LeftShoulder -7.889988 15.893878 15.692682
LeftArm 16.463553 -30.855618 -66.279933
LeftForeArm 6.963405 -0.000000 64.839475
LeftHand -37.637482 -0.000000 53.678233
LeftHandThumb1 -26.253704 0.000000 33.147579
RightShoulder -15.524443 10.127750 -18.190527
RightArm -15.626517 -28.008629 91.250267
RightForeArm -20.743888 -0.000000 24.675829
RightHand -4.912817 -0.000000 10.082307
RightHandThumb1 -24.326973 -0.000000 -32.862282
LeftUpLeg -82.954337 -0.281235 13.827197
LeftLeg 104.921254 -0.000000 -0.000000
LeftFoot 43.829172 -3.940411 -12.037445
LeftToeBase 1.515824 -0.000000 -0.000000
RightUpLeg -9.400841 -0.415718 -16.083095
RightLeg 21.733730 -0.000000 -0.000000
RightFoot -13.621613 -6.918435 -9.945767
RightToeBase -3.599085 -0.000000 0.000000
1404
root -6.831774 33.626752 -3.692437 -2.176399 -9.618213 20.111961
Spine -1.213439 14.664480 -16.852900
Head 4.706066 -3.375894 2.269516
LeftShoulder -7.878935 15.879132 15.694988
LeftArm 16.432869 -30.798789 -66.318962
LeftForeArm 6.876994 -0.000000 64.876546
LeftHand -37.621500 0.000000 53.614279
LeftHandThumb1 -26.253704 0.000000 33.147579
RightShoulder -15.503984 10.122126 -18.174163
RightArm -15.658060 -27.891090 91.202419
RightForeArm -20.806966 0.000000 24.764386
RightHand -4.894210 -0.000000 10.062916
RightHandThumb1 -24.326973 -0.000000 -32.862282
LeftUpLeg -83.030583 0.165184 12.513605
LeftLeg 104.792373 -0.000000 -0.000000
LeftFoot 43.502204 -3.527246 -12.444206
LeftToeBase 2.021185 -0.000000 -0.000000
RightUpLeg -9.438661 -0.622057 -15.921111
RightLeg 21.767987 -0.000000 -0.000000
RightFoot -13.671446 -7.003740 -9.875188
RightToeBase -3.497952 -0.000000 0.000000
1405
root -6.849472 33.612528 -3.728265 -2.006696 -9.331576 19.936309
Spine -1.167340 14.510615 -16.592592
Head 4.596153 -3.375010 2.192673
LeftShoulder -7.872774 15.842120 15.658267
LeftArm 16.470701 -30.787309 -66.383467
LeftForeArm 6.863017 -0.000000 64.891068
LeftHand -37.644407 -0.000000 53.547622
LeftHandThumb1 -26.253704 0.000000 33.147579
RightShoulder -15.541934 10.124954 -18.188773
RightArm -15.679567 -27.779907 91.155398
RightForeArm -20.879350 -0.000000 24.861809
RightHand -4.915414 -0.000000 10.068087
RightHandThumb1 -24.326973 -0.000000 -32.862282
LeftUpLeg -83.196311 0.622059 11.253202
LeftLeg 104.663679 -0.000000 -0.000000
LeftFoot 43.263546 -2.940438 -12.979242
LeftToeBase 2.749288 -0.000000 -0.000000
RightUpLeg -9.553837 -0.940061 -15.715946
RightLeg 21.829815 -0.000000 -0.000000
RightFoot -13.712318 -6.991130 -9.835927
RightToeBase -3.484859 -0.000000 0.000000
1406
root -6.867908 33.599142 -3.761887 -1.858219 -9.028550 19.782221
Spine -1.101997 14.351784 -16.374313
Head 4.481764 -3.382438 2.171009
LeftShoulder -7.860211 15.804197 15.666305
LeftArm 16.435673 -30.711619 -66.396531
LeftForeArm 6.695794 -0.000000 64.918656
LeftHand -37.521516 0.000000 53.483191
LeftHandThumb1 -26.253704 0.000000 33.147579
RightShoulder -15.594849 10.100698 -18.178679
RightArm -15.628690 -27.746005 91.099632
RightForeArm -20.899769 -0.000000 24.882689
RightHand -4.966198 0.000000 10.080049
RightHandThumb1 -24.326973 -0.000000 -32.862282
LeftUpLeg -83.365225 1.107155 9.882321
LeftLeg 104.474913 -0.000000 -0.000000
LeftFoot 43.215764 -2.108806 -13.510690
LeftToeBase 2.156247 -0.000000 -0.000000
RightUpLeg -9.648681 -1.177779 -15.524030
RightLeg 21.917754 -0.000000 -0.000000
RightFoot -13.721315 -7.175522 -9.765140
RightToeBase -3.536039 -0.000000 0.000000
1407
root -6.899471 33.583831 -3.789028 -1.717032 -8.732568 19.576414
Spine -1.059236 14.213456 -16.130121
Head 4.402263 -3.349059 2.257226
LeftShoulder -7.821820 15.794610 15.682824
LeftArm 16.445589 -30.771507 -66.468289
LeftForeArm 6.532166 -0.000000 64.924771
LeftHand -37.417429 -0.000000 53.320212
LeftHandThumb1 -26.253704 0.000000 33.147579
RightShoulder -15.631802 10.116763 -18.151664
RightArm -15.667559 -27.671502 91.089064
RightForeArm -20.971515 -0.000000 24.891502
RightHand -4.973153 0.000000 10.040041
RightHandThumb1 -24.326973 -0.000000 -32.862282
LeftUpLeg -83.525121 1.676131 8.545804
LeftLeg 104.367645 -0.000000 -0.000000
LeftFoot 43.101960 -1.699677 -13.425760
LeftToeBase 1.503625 -0.000000 -0.000000
RightUpLeg -9.708415 -1.435432 -15.251351
RightLeg 21.966532 -0.000000 -0.000000
RightFoot -13.785040 -7.208198 -9.669005
RightToeBase -3.335269 -0.000000 0.000000
1408
root -6.923781 33.567502 -3.823431 -1.571310 -8.432424 19.385212
Spine -0.985497 14.030712 -15.877130
Head 4.263469 -3.344946 2.248354
LeftShoulder -7.812269 15.779503 15.701135
LeftArm 16.407968 -30.745953 -66.497634
LeftForeArm 6.513762 -0.000000 64.938193
LeftHand -37.386274 -0.000000 53.377172
LeftHandThumb1 -26.253704 0.000000 33.147579
RightShoulder -15.641218 10.143374 -18.143922
RightArm -15.647932 -27.656706 91.054921
RightForeArm -21.011333 -0.000000 24.884450
RightHand -4.956802 -0.000000 9.955182
RightHandThumb1 -24.326973 -0.000000 -32.862282
LeftUpLeg -83.739999 2.211095 7.208538
LeftLeg 104.349324 -0.000000 -0.000000
LeftFoot 42.410054 -0.815432 -13.837014
LeftToeBase 3.350958 -0.000000 -0.000000
RightUpLeg -9.813464 -1.619846 -15.003911
RightLeg 22.068005 -0.000000 -0.000000
RightFoot -13.766528 -7.429209 -9.738800
RightToeBase -3.433911 -0.000000 0.000000
1409
root -6.945613 33.552620 -3.860549 -1.388323 -8.152437 19.250117
Spine -0.965520 13.846789 -15.715323
Head 4.105361 -3.336512 2.269239
LeftShoulder -7.840822 15.760732 15.694702
LeftArm 16.445482 -30.797863 -66.538945
LeftForeArm 6.544147 0.000000 64.900254
LeftHand -37.451655 0.000000 53.276364
LeftHandThumb1 -26.253704 0.000000 33.147579
RightShoulder -15.676281 10.128096 -18.118956
RightArm -15.559153 -27.675681 91.022195
RightForeArm -21.039338 -0.000000 24.854015
RightHand -4.876825 -0.000000 9.963767
RightHandThumb1 -24.326973 -0.000000 -32.862282
LeftUpLeg -84.022383 2.778286 5.790136
LeftLeg 104.294368 -0.000000 -0.000000
LeftFoot 42.272942 0.200660 -14.338475
LeftToeBase 1.559855 -0.000000 -0.000000
RightUpLeg -9.984345 -1.812537 -14.824384
RightLeg 22.192302 -0.000000 -0.000000
RightFoot -13.863202 -7.496666 -9.608175
RightToeBase -3.221272 -0.000000 0.000000
1410
root -6.972307 33.537923 -3.893530 -1.244847 -7.884213 19.081817
Spine -0.902517 13.673220 -15.505524
Head 3.948785 -3.266199 2.329400
LeftShoulder -7.869557 15.811636 15.662129
LeftArm 16.541506 -30.920807 -66.608419
LeftForeArm 6.372570 -0.000000 64.860660
LeftHand -37.408906 -0.000000 53.280771
LeftHandThumb1 -26.253704 0.000000 33.147579
RightShoulder -15.701702 10.171167 -18.094032
RightArm -15.527236 -27.689400 90.999967
RightForeArm -21.016893 -0.000000 24.832844
RightHand -4.837560 0.000000 10.012508
RightHandThumb1 -24.326973 -0.000000 -32.862282
LeftUpLeg -84.272988 3.385825 4.454359
LeftLeg 104.277267 -0.000000 -0.000000
LeftFoot 42.071265 0.600804 -14.616885
LeftToeBase 3.159174 -0.000000 -0.000000
RightUpLeg -10.092017 -1.991620 -14.600392
RightLeg 22.275654 -0.000000 -0.000000
RightFoot -13.891815 -7.613817 -9.599618
RightToeBase -3.141690 -0.000000 0.000000
